<?xml version="1.0" encoding="UTF-8" standalone="no"?><!DOCTYPE svg PUBLIC "-//W3C//DTD SVG 1.1//EN" "http://www.w3.org/Graphics/SVG/1.1/DTD/svg11.dtd"><svg width="100%" height="100%" viewBox="0 0 144 64" version="1.1" xmlns="http://www.w3.org/2000/svg" xmlns:xlink="http://www.w3.org/1999/xlink" xml:space="preserve" style="fill-rule:evenodd;clip-rule:evenodd;stroke-linejoin:round;stroke-miterlimit:1.41421;"><g><g id="Shiba"><g><rect x="-8" y="0" width="9" height="6" style="fill:#2301dd;fill-rule:nonzero;"/><rect x="47" y="0" width="9" height="6" style="fill:#2301dd;fill-rule:nonzero;"/><rect x="1" y="6" width="6" height="6" style="fill:#2301dd;fill-rule:nonzero;"/><rect x="41" y="6" width="6" height="6" style="fill:#2301dd;fill-rule:nonzero;"/><rect x="7" y="12" width="34" height="6" style="fill:#2301dd;fill-rule:nonzero;"/><rect x="50" y="0" width="6" height="19" style="fill:#2301dd;fill-rule:nonzero;"/><rect x="-4" y="19" width="6" height="6" style="fill:#2301dd;fill-rule:nonzero;"/><rect x="46" y="19" width="6" height="6" style="fill:#2301dd;fill-rule:nonzero;"/><rect x="50" y="25" width="6" height="24" style="fill:#2301dd;fill-rule:nonzero;"/><rect x="-2" y="49" width="6" height="6" style="fill:#2301dd;fill-rule:nonzero;"/><rect x="44" y="49" width="6" height="6" style="fill:#2301dd;fill-rule:nonzero;"/><rect x="4" y="55" width="6" height="6" style="fill:#2301dd;fill-rule:nonzero;"/><rect x="38" y="55" width="6" height="6" style="fill:#2301dd;fill-rule:nonzero;"/><rect x="10" y="58" width="28" height="6" style="fill:#2301dd;fill-rule:nonzero;"/><rect x="30" y="27" width="8" height="5" style="fill:#2301dd;fill-rule:nonzero;"/><rect x="17" y="40" width="14" height="5" style="fill:#2301dd;fill-rule:nonzero;"/><rect x="20" y="45" width="8" height="5" style="fill:#2301dd;fill-rule:nonzero;"/><rect x="10" y="27" width="8" height="5" style="fill:#2301dd;fill-rule:nonzero;"/></g></g><g id="Laptop"><g><rect x="130" y="6" width="6" height="58" style="fill:#2301dd;fill-rule:nonzero;"/><rect x="72" y="6" width="6" height="58" style="fill:#2301dd;fill-rule:nonzero;"/><rect x="78" y="58" width="52" height="6" style="fill:#2301dd;fill-rule:nonzero;"/><rect x="78" y="28" width="52" height="6" style="fill:#2301dd;fill-rule:nonzero;"/><rect x="78" y="0" width="52" height="6" style="fill:#2301dd;fill-rule:nonzero;"/><rect x="82" y="37" width="8" height="4" style="fill:#2301dd;fill-rule:nonzero;"/><rect x="82" y="44" width="8" height="4" style="fill:#2301dd;fill-rule:nonzero;"/><rect x="82" y="51" width="8" height="4" style="fill:#2301dd;fill-rule:nonzero;"/><rect x="106" y="37" width="8" height="4" style="fill:#2301dd;fill-rule:nonzero;"/><rect x="106" y="44" width="8" height="4" style="fill:#2301dd;fill-rule:nonzero;"/><rect x="106" y="51" width="8" height="4" style="fill:#2301dd;fill-rule:nonzero;"/><rect x="94" y="37" width="8" height="4" style="fill:#2301dd;fill-rule:nonzero;"/><rect x="94" y="44" width="8" height="4" style="fill:#2301dd;fill-rule:nonzero;"/><rect x="94" y="51" width="8" height="4" style="fill:#2301dd;fill-rule:nonzero;"/><rect x="118" y="37" width="8" height="4" style="fill:#2301dd;fill-rule:nonzero;"/><rect x="118" y="44" width="8" height="4" style="fill:#2301dd;fill-rule:nonzero;"/><rect x="118" y="51" width="8" height="4" style="fill:#2301dd;fill-rule:nonzero;"/></g></g></g></svg>