<?xml version="1.0" encoding="UTF-8" standalone="no"?><!DOCTYPE svg PUBLIC "-//W3C//DTD SVG 1.1//EN" "http://www.w3.org/Graphics/SVG/1.1/DTD/svg11.dtd"><svg width="100%" height="100%" viewBox="0 0 800 400" version="1.1" xmlns="http://www.w3.org/2000/svg" xmlns:xlink="http://www.w3.org/1999/xlink" xml:space="preserve" style="fill-rule:evenodd;clip-rule:evenodd;stroke-linejoin:round;stroke-miterlimit:1.41421;"><g><g id="Shiba"><g><rect x="63.5" y="50" width="45" height="30" style="fill:#2301dd;fill-rule:nonzero;"/><rect x="108.5" y="80" width="30" height="30" style="fill:#2301dd;fill-rule:nonzero;"/><rect x="138.5" y="110" width="150" height="30" style="fill:#2301dd;fill-rule:nonzero;"/><rect x="288.5" y="80" width="30" height="30" style="fill:#2301dd;fill-rule:nonzero;"/><rect x="318.5" y="50" width="30" height="30" style="fill:#2301dd;fill-rule:nonzero;"/><rect x="63.5" y="50" width="30" height="90" style="fill:#2301dd;fill-rule:nonzero;"/><rect x="333.5" y="50" width="30" height="90" style="fill:#2301dd;fill-rule:nonzero;"/><rect x="78.5" y="140" width="30" height="30" style="fill:#2301dd;fill-rule:nonzero;"/><rect x="318.5" y="140" width="30" height="30" style="fill:#2301dd;fill-rule:nonzero;"/><rect x="63.5" y="170" width="30" height="105" style="fill:#2301dd;fill-rule:nonzero;"/><rect x="333.5" y="170" width="30" height="105" style="fill:#2301dd;fill-rule:nonzero;"/><rect x="93.5" y="275" width="30" height="30" style="fill:#2301dd;fill-rule:nonzero;"/><rect x="303.5" y="275" width="30" height="30" style="fill:#2301dd;fill-rule:nonzero;"/><rect x="123.5" y="305" width="30" height="30" style="fill:#2301dd;fill-rule:nonzero;"/><rect x="273.5" y="305" width="30" height="30" style="fill:#2301dd;fill-rule:nonzero;"/><rect x="153.5" y="320" width="120" height="30" style="fill:#2301dd;fill-rule:nonzero;"/><rect x="153.5" y="185" width="30" height="22.5" style="fill:#2301dd;fill-rule:nonzero;"/><rect x="243.5" y="185" width="30" height="22.5" style="fill:#2301dd;fill-rule:nonzero;"/><rect x="198.5" y="260" width="30" height="30" style="fill:#2301dd;fill-rule:nonzero;"/><rect x="183.5" y="245" width="30" height="30" style="fill:#2301dd;fill-rule:nonzero;"/><rect x="213.5" y="245" width="30" height="30" style="fill:#2301dd;fill-rule:nonzero;"/></g></g><g id="Laptop"><g><rect x="466.5" y="50" width="240" height="30" style="fill:#ff01ff;fill-rule:nonzero;"/><rect x="466.5" y="320" width="240" height="30" style="fill:#ff01ff;fill-rule:nonzero;"/><rect x="436.5" y="185" width="300" height="30" style="fill:#ff01ff;fill-rule:nonzero;"/><rect x="436.5" y="80" width="30" height="135" style="fill:#ff01ff;fill-rule:nonzero;"/><rect x="436.5" y="215" width="30" height="135" style="fill:#ff01ff;fill-rule:nonzero;"/><rect x="706.5" y="80" width="30" height="135" style="fill:#ff01ff;fill-rule:nonzero;"/><rect x="706.5" y="215" width="30" height="135" style="fill:#ff01ff;fill-rule:nonzero;"/><rect x="481.5" y="260" width="30" height="15" style="fill:#ff01ff;fill-rule:nonzero;"/><rect x="481.5" y="230" width="30" height="15" style="fill:#ff01ff;fill-rule:nonzero;"/><rect x="481.5" y="290" width="30" height="15" style="fill:#ff01ff;fill-rule:nonzero;"/><rect x="526.5" y="260" width="30" height="15" style="fill:#ff01ff;fill-rule:nonzero;"/><rect x="526.5" y="230" width="30" height="15" style="fill:#ff01ff;fill-rule:nonzero;"/><rect x="526.5" y="290" width="30" height="15" style="fill:#ff01ff;fill-rule:nonzero;"/><rect x="571.5" y="260" width="30" height="15" style="fill:#ff01ff;fill-rule:nonzero;"/><rect x="571.5" y="230" width="30" height="15" style="fill:#ff01ff;fill-rule:nonzero;"/><rect x="571.5" y="290" width="30" height="15" style="fill:#ff01ff;fill-rule:nonzero;"/><rect x="616.5" y="260" width="30" height="15" style="fill:#ff01ff;fill-rule:nonzero;"/><rect x="616.5" y="230" width="30" height="15" style="fill:#ff01ff;fill-rule:nonzero;"/><rect x="616.5" y="290" width="30" height="15" style="fill:#ff01ff;fill-rule:nonzero;"/><rect x="661.5" y="260" width="30" height="15" style="fill:#ff01ff;fill-rule:nonzero;"/><rect x="661.5" y="230" width="30" height="15" style="fill:#ff01ff;fill-rule:nonzero;"/><rect x="661.5" y="290" width="30" height="15" style="fill:#ff01ff;fill-rule:nonzero;"/></g></g></g></svg>